<svg width="22" height="22" viewBox="0 0 22 22" fill="none" xmlns="http://www.w3.org/2000/svg">
<path d="M11 20C15.9706 20 20 15.9706 20 11C20 6.02944 15.9706 2 11 2C6.02944 2 2 6.02944 2 11C2 15.9706 6.02944 20 11 20Z" stroke="#F4F3FD" stroke-width="3"/>
<path d="M10.9996 2.00036C12.9176 2.00043 14.7854 2.61322 16.3306 3.74936C17.8764 4.88566 19.0186 6.48616 19.5906 8.31736C20.1626 10.1484 20.1346 12.1144 19.5106 13.9284C18.8866 15.7419 17.6996 17.3088 16.1226 18.4004C14.5457 19.4936 12.6606 20.0542 10.7426 20.0004C8.82543 19.9457 6.97586 19.28 5.4636 18.1004C3.95104 16.9204 2.85508 15.288 2.3356 13.4414C1.81615 11.5949 1.90024 9.63071 2.5756 7.83537" stroke="#707070" stroke-width="3"/>
</svg>
